<?xml version="1.0" encoding="utf-8"?>
<!-- Generator: Adobe Illustrator 22.0.1, SVG Export Plug-In . SVG Version: 6.00 Build 0)  -->
<svg version="1.1" id="Vrstva_1" xmlns="http://www.w3.org/2000/svg" xmlns:xlink="http://www.w3.org/1999/xlink" x="0px" y="0px"
	 viewBox="0 0 213 263" style="enable-background:new 0 0 213 263;" xml:space="preserve">
<style type="text/css">
	.st0{fill-rule:evenodd;clip-rule:evenodd;fill:#FFFFFF;}
</style>
<path class="st0" d="M58.1,67.7c2.7,0,4.9,2.2,4.9,4.9v122.9c0,10.9,8.8,19.7,19.7,19.7h19.7c10.9,0,19.7-8.8,19.7-19.7v-4.9
	c0-2.7,2.2-4.9,4.9-4.9h14.8c10.9,0,19.7-8.8,19.7-19.7v-19.7c0-10.9-8.8-19.7-19.7-19.7H127c-2.7,0-4.9-2.2-4.9-4.9v-9.8
	c0-2.7,2.2-4.9,4.9-4.9h54.1c10.9,0,19.7-8.8,19.7-19.7V67.7c0-10.9-8.8-19.7-19.7-19.7h-68.8c-5.5,0-9.8,4.4-9.8,9.8
	s4.4,9.8,9.8,9.8h63.9c2.7,0,4.9,2.2,4.9,4.9v9.8c0,2.7-2.2,4.9-4.9,4.9h-54.1c-10.9,0-19.7,8.8-19.7,19.7v19.7
	c0,10.9,8.8,19.7,19.7,19.7h14.8c2.7,0,4.9,2.2,4.9,4.9v9.8c0,2.7-2.2,4.9-4.9,4.9h-14.8c-10.9,0-19.7,8.8-19.7,19.7v4.9
	c0,2.7-2.2,4.9-4.9,4.9h-9.8c-2.7,0-4.9-2.2-4.9-4.9V67.7C82.7,56.8,73.9,48,63,48H23.7c-5.5,0-9.8,4.4-9.8,9.8s4.4,9.8,9.8,9.8
	H58.1z"/>
</svg>
