<?xml version="1.0" encoding="UTF-8" standalone="no"?><!DOCTYPE svg PUBLIC "-//W3C//DTD SVG 1.1//EN" "http://www.w3.org/Graphics/SVG/1.1/DTD/svg11.dtd"><svg width="100%" height="100%" viewBox="0 0 1600 1600" version="1.1" xmlns="http://www.w3.org/2000/svg" xmlns:xlink="http://www.w3.org/1999/xlink" xml:space="preserve" xmlns:serif="http://www.serif.com/" style="fill-rule:evenodd;clip-rule:evenodd;stroke-linejoin:round;stroke-miterlimit:2;"><path d="M1330.13,378.133c-126.933,-102.066 -327.733,-119.333 -336.266,-120.066c-13.4,-1.134 -26.134,6.466 -31.6,18.733c-0.4,0.8 -4.8,10.867 -9.667,26.533c83.933,14.134 187.067,42.667 280.4,100.6c14.933,9.267 19.533,28.934 10.267,43.934c-6,9.733 -16.467,15.066 -27.134,15.066c-5.733,0 -11.533,-1.533 -16.8,-4.8c-160.4,-99.466 -360.8,-104.466 -399.333,-104.466c-38.533,-0 -239,5 -399.267,104.466c-15,9.334 -34.6,4.667 -43.933,-10.266c-9.333,-15 -4.667,-34.6 10.267,-43.934c93.333,-57.866 196.4,-86.466 280.4,-100.6c-4.934,-15.733 -9.334,-25.733 -9.667,-26.533c-5.533,-12.267 -18.2,-20 -31.667,-18.667c-8.466,0.667 -209.266,17.934 -337.933,121.467c-67.2,62.067 -201.533,425.267 -201.533,739.267c-0,5.533 1.466,11 4.2,15.8c92.733,162.866 345.666,205.533 403.333,207.4l1,-0c10.2,-0 19.8,-4.867 25.8,-13.134l58.333,-80.133c-157.266,-40.667 -237.6,-109.667 -242.266,-113.733c-13.2,-11.667 -14.467,-31.8 -2.8,-45c11.666,-13.2 31.733,-14.467 44.933,-2.867c1.933,1.733 149.867,127.267 440.8,127.267c291.467,-0 439.4,-126.067 440.867,-127.334c13.2,-11.466 33.333,-10.266 44.933,3c11.6,13.2 10.333,33.267 -2.8,44.867c-4.667,4.133 -85,73.067 -242.267,113.733l58.334,80.134c6,8.266 15.6,13.133 25.8,13.133l1,0c57.666,-1.8 310.6,-44.467 403.333,-207.4c2.667,-4.8 4.133,-10.2 4.133,-15.733c0,-314 -134.333,-677.2 -203.2,-740.734Zm-737.4,613.2c-61.6,0 -111.6,-57.133 -111.6,-127.533c0,-70.4 49.934,-127.533 111.6,-127.533c61.667,-0 111.6,57.133 111.6,127.533c0,70.4 -49.933,127.533 -111.6,127.533Zm414.534,0c-61.6,0 -111.6,-57.133 -111.6,-127.533c-0,-70.4 49.933,-127.533 111.6,-127.533c61.6,-0 111.6,57.133 111.6,127.533c-0,70.4 -50,127.533 -111.6,127.533Z" style="fill:#fff;fill-rule:nonzero;"/></svg>