<?xml version="1.0" encoding="UTF-8" standalone="no"?><!DOCTYPE svg PUBLIC "-//W3C//DTD SVG 1.1//EN" "http://www.w3.org/Graphics/SVG/1.1/DTD/svg11.dtd"><svg width="100%" height="100%" viewBox="0 0 628 459" version="1.1" xmlns="http://www.w3.org/2000/svg" xmlns:xlink="http://www.w3.org/1999/xlink" xml:space="preserve" xmlns:serif="http://www.serif.com/" style="fill-rule:evenodd;clip-rule:evenodd;stroke-linejoin:round;stroke-miterlimit:2;"><path d="M0.033,95.948l0,310.388l186.584,-155.225l-186.584,-155.163Z" style="fill:#fff;fill-rule:nonzero;"/><path d="M578.284,-0.631l-528.709,0c-24.375,0 -44.791,17.858 -48.792,41.137l246.625,205.13l41.125,34.187c13.959,11.629 36.834,11.629 50.792,0l43.208,-35.921l244.584,-203.396c-4.042,-23.279 -24.417,-41.137 -48.833,-41.137Z" style="fill:#fff;fill-rule:nonzero;"/><path d="M627.867,406.336l-0,-310.388l-186.625,155.163l186.625,155.225Z" style="fill:#fff;fill-rule:nonzero;"/><path d="M372.742,308.094l-33.417,27.77c-13.958,11.622 -36.833,11.622 -50.792,0l-43.083,-35.82l-25.125,-20.921l-201.625,167.667c8.459,6.804 19.208,10.912 30.875,10.912l528.709,0c11.666,0 22.416,-4.108 30.916,-10.912l-201.667,-167.667l-34.791,28.971Z" style="fill:#fff;fill-rule:nonzero;"/></svg>