<?xml version="1.0" encoding="UTF-8" standalone="no"?><!DOCTYPE svg PUBLIC "-//W3C//DTD SVG 1.1//EN" "http://www.w3.org/Graphics/SVG/1.1/DTD/svg11.dtd"><svg width="100%" height="100%" viewBox="0 0 1600 1600" version="1.1" xmlns="http://www.w3.org/2000/svg" xmlns:xlink="http://www.w3.org/1999/xlink" xml:space="preserve" xmlns:serif="http://www.serif.com/" style="fill-rule:evenodd;clip-rule:evenodd;stroke-linejoin:round;stroke-miterlimit:2;"><path d="M726.667,140c-306.667,33.333 -553.334,280 -586.667,580c-33.333,313.333 146.667,593.333 420,700c20,6.667 40,-6.667 40,-33.333l0,-106.667c0,0 -26.667,6.667 -60,6.667c-93.333,-0 -133.333,-80 -140,-126.667c-6.667,-26.667 -20,-46.667 -40,-66.667c-20,-6.666 -26.667,-6.666 -26.667,-13.333c0,-13.333 20,-13.333 26.667,-13.333c40,-0 73.333,46.666 86.667,66.666c33.333,53.334 73.333,66.667 93.333,66.667c26.667,0 46.667,-6.667 60,-13.333c6.667,-46.667 26.667,-93.334 66.667,-120c-153.334,-33.334 -266.667,-120 -266.667,-266.667c0,-73.333 33.333,-146.667 80,-200c-6.667,-13.333 -13.333,-46.667 -13.333,-93.333c-0,-26.667 -0,-66.667 20,-106.667c-0,0 93.333,0 186.666,86.667c33.334,-13.334 80,-20 126.667,-20c46.667,-0 93.333,6.666 133.333,20c86.667,-86.667 186.667,-86.667 186.667,-86.667c13.333,40 13.333,80 13.333,106.667c0,53.333 -6.666,80 -13.333,93.333c46.667,53.333 80,120 80,200c0,146.667 -113.333,233.333 -266.667,266.667c40,33.333 66.667,93.333 66.667,153.333l0,173.333c0,20 20,40 46.667,33.334c246.666,-100 420,-340 420,-620c-0,-400 -340,-713.334 -740,-666.667Z" style="fill:#fff;fill-rule:nonzero;"/></svg>