<svg viewBox="0 0 90 90" height="120" width="120" xmlns="http://www.w3.org/2000/svg" version="1.0"><path fill="#fff" d="M48 11.6c-8 1.2-16 2.6-17.8 2.9l-3.2.6V36c0 11.5-.4 22-.9 23.4-.8 2.1-1.9 2.6-6.6 3.1C11.6 63.5 9 65.9 9 72c0 4.1.4 5.2 2.6 6.9 5.1 4 17.7 2.2 20.4-2.8.6-1.2 1-10.5 1-23 0-21 0-21.1 2.3-21.5 4.5-1 27.6-4.6 29.1-4.6 1.4 0 1.6 1.7 1.6 11.9 0 15.8-.4 16.8-7.5 17.6-7.9 1-10.5 3.4-10.5 9.5 0 6.7 2.9 9 11.2 9 5.5 0 6.3-.3 9.4-3.4l3.4-3.4V9l-4.7.1c-2.7.1-11.3 1.2-19.3 2.5z"></path></svg>